<svg width="196" height="206" viewBox="0 0 196 206" fill="none" xmlns="http://www.w3.org/2000/svg">
<path d="M137.398 105.574C109.341 105.574 86.5068 81.8968 86.5068 52.787C86.5068 23.6773 109.341 0 137.398 0C165.455 0 188.29 23.6773 188.29 52.787C188.29 81.8968 165.455 105.574 137.398 105.574ZM137.398 10.2499C115.006 10.2499 96.7879 29.3352 96.7879 52.787C96.7879 76.2388 115.006 95.3242 137.398 95.3242C159.79 95.3242 178.009 76.2388 178.009 52.787C178.009 29.3352 159.79 10.2499 137.398 10.2499Z" fill="black"/>
<path d="M193.081 169.124H174.236C172.427 169.124 171.059 167.791 171.357 166.336L176.734 140.291C176.961 139.184 178.133 138.374 179.51 138.374H187.807C189.185 138.374 190.357 139.184 190.583 140.291L195.96 166.336C196.258 167.791 194.891 169.124 193.081 169.124Z" fill="black"/>
<path d="M188.29 58.937H178.009V138.374H188.29V58.937Z" fill="black"/>
<path d="M139.637 81.2486C144.468 81.2486 148.385 77.3441 148.385 72.5276C148.385 67.7112 144.468 63.8066 139.637 63.8066C134.805 63.8066 130.889 67.7112 130.889 72.5276C130.889 77.3441 134.805 81.2486 139.637 81.2486Z" fill="black"/>
<path d="M36.874 87.2098C41.7054 87.2098 45.622 83.3053 45.622 78.4888C45.622 73.6723 41.7054 69.7678 36.874 69.7678C32.0426 69.7678 28.126 73.6723 28.126 78.4888C28.126 83.3053 32.0426 87.2098 36.874 87.2098Z" fill="black"/>
<path d="M81.5006 113.262C86.2708 113.262 90.1379 109.358 90.1379 104.541C90.1379 99.7248 86.2708 95.8203 81.5006 95.8203C76.7303 95.8203 72.8633 99.7248 72.8633 104.541C72.8633 109.358 76.7303 113.262 81.5006 113.262Z" fill="black"/>
<path d="M120.108 54.3131C118.355 54.3131 116.643 53.4211 115.674 51.8113C114.21 49.3813 115.014 46.2336 117.458 44.7776C117.581 44.7059 130.429 37.057 138.873 30.7718C147.06 24.6712 157.422 14.4077 157.525 14.3052C159.536 12.3058 162.805 12.3058 164.815 14.3052C166.826 16.3046 166.826 19.5548 164.815 21.5542C164.372 21.9951 153.834 32.4431 145.049 38.9743C136.172 45.5876 123.283 53.257 122.737 53.5749C121.912 54.067 120.994 54.3028 120.097 54.3028L120.108 54.3131Z" fill="black"/>
<path d="M40.8256 55.1962C39.7551 55.1962 33.1569 55.0938 22.7811 52.8613C11.3244 50.3933 2.39994 43.6959 2.02937 43.4194C-0.235201 41.7092 -0.667529 38.4936 1.05149 36.2406C2.7705 33.9877 6.00267 33.5576 8.26724 35.2678C8.329 35.319 15.8021 40.8797 24.9633 42.8459C34.8142 44.9657 40.7947 44.9555 40.8462 44.9452C43.6975 44.9247 46.0238 47.1675 46.065 49.9939C46.1062 52.8203 43.8313 55.145 40.9903 55.1859C40.9697 55.1859 40.9182 55.1859 40.8462 55.1859L40.8256 55.1962Z" fill="black"/>
<path d="M121.543 144.604C121.358 144.604 121.163 144.593 120.968 144.573C107.816 143.115 94.4387 142.519 81.2051 142.797C78.3796 142.838 76.0165 140.61 75.9651 137.776C75.9035 134.942 78.1536 132.591 80.9894 132.539C94.6648 132.252 108.505 132.868 122.108 134.377C124.923 134.685 126.958 137.232 126.649 140.045C126.362 142.673 124.132 144.614 121.553 144.614L121.543 144.604Z" fill="black"/>
<path d="M141.326 167.643C141.208 164.522 139.548 161.71 136.795 159.92C133.621 157.862 129.458 157.526 125.928 159.046C125.849 159.073 125.77 159.113 125.691 159.154L90.2321 176.872L54.7863 159.154C54.7072 159.113 54.6282 159.073 54.5492 159.046C51.0323 157.526 46.8699 157.862 43.6955 159.92C40.9425 161.71 39.296 164.522 39.1643 167.643C38.8614 175.419 38.453 186.64 38.2686 195.91C38.2028 199.112 39.7439 202.044 42.4837 203.968C44.4068 205.314 46.7119 206 49.0433 206C50.5712 206 52.1124 205.704 53.5613 205.098C53.6403 205.072 53.7062 205.031 53.7852 204.991L90.2452 187.286L126.705 204.991C126.784 205.031 126.85 205.058 126.929 205.098C128.378 205.704 129.919 206 131.447 206C133.779 206 136.084 205.314 138.007 203.968C140.76 202.044 142.288 199.112 142.222 195.91C142.037 186.613 141.629 175.406 141.326 167.643Z" fill="black"/>
</svg>
