<svg width="25" height="25" viewBox="0 0 25 25" fill="none" xmlns="http://www.w3.org/2000/svg">
<path d="M12.5 24.5039C10.8516 24.5039 9.30469 24.1914 7.85938 23.5664C6.41406 22.9492 5.14453 22.0938 4.05078 21C2.95703 19.8984 2.09766 18.6289 1.47266 17.1914C0.855469 15.7461 0.546875 14.1992 0.546875 12.5508C0.546875 10.9023 0.855469 9.35547 1.47266 7.91016C2.09766 6.46484 2.95703 5.19531 4.05078 4.10156C5.14453 3.00781 6.41406 2.15234 7.85938 1.53516C9.30469 0.910156 10.8516 0.597656 12.5 0.597656C14.1484 0.597656 15.6953 0.910156 17.1406 1.53516C18.5859 2.15234 19.8555 3.00781 20.9492 4.10156C22.043 5.19531 22.8984 6.46484 23.5156 7.91016C24.1406 9.35547 24.4531 10.9023 24.4531 12.5508C24.4531 14.1992 24.1406 15.7461 23.5156 17.1914C22.8984 18.6289 22.043 19.8984 20.9492 21C19.8555 22.0938 18.5859 22.9492 17.1406 23.5664C15.6953 24.1914 14.1484 24.5039 12.5 24.5039ZM10.4844 16.6406H17.0469C17.2344 16.6406 17.3828 16.5859 17.4922 16.4766C17.6094 16.3594 17.668 16.1992 17.668 15.9961C17.668 15.8086 17.6094 15.6602 17.4922 15.5508C17.3828 15.4336 17.2344 15.375 17.0469 15.375H10.4961C10.3164 15.375 10.168 15.3242 10.0508 15.2227C9.94141 15.1133 9.875 14.9648 9.85156 14.7773L9.79297 14.3203H17.3281C17.7812 14.3203 18.125 14.1953 18.3594 13.9453C18.6016 13.6953 18.7539 13.3477 18.8164 12.9023L19.3086 9.62109C19.3164 9.58984 19.3203 9.55078 19.3203 9.50391C19.3281 9.45703 19.332 9.42578 19.332 9.41016C19.332 9.25391 19.2812 9.13281 19.1797 9.04688C19.0859 8.95312 18.9531 8.90625 18.7812 8.90625H8.99609L8.89062 8.08594C8.85938 7.82812 8.74609 7.62109 8.55078 7.46484C8.35547 7.30078 8.12109 7.21875 7.84766 7.21875H5.78516C5.59766 7.21875 5.44531 7.28125 5.32812 7.40625C5.21094 7.52344 5.15234 7.67578 5.15234 7.86328C5.15234 8.05078 5.21094 8.20703 5.32812 8.33203C5.44531 8.44922 5.59766 8.50781 5.78516 8.50781H7.66016L8.60938 15.1758C8.6875 15.6602 8.87891 16.0273 9.18359 16.2773C9.49609 16.5195 9.92969 16.6406 10.4844 16.6406ZM10.6719 19.6055C10.9688 19.6055 11.2227 19.5039 11.4336 19.3008C11.6523 19.0898 11.7617 18.832 11.7617 18.5273C11.7617 18.2227 11.6523 17.9648 11.4336 17.7539C11.2227 17.543 10.9688 17.4375 10.6719 17.4375C10.3672 17.4375 10.1094 17.543 9.89844 17.7539C9.69531 17.9648 9.59375 18.2227 9.59375 18.5273C9.59375 18.832 9.69531 19.0898 9.89844 19.3008C10.1094 19.5039 10.3672 19.6055 10.6719 19.6055ZM16.0625 19.6055C16.375 19.6055 16.6328 19.5039 16.8359 19.3008C17.0469 19.0898 17.1523 18.832 17.1523 18.5273C17.1523 18.2227 17.0469 17.9648 16.8359 17.7539C16.6328 17.543 16.375 17.4375 16.0625 17.4375C15.7656 17.4375 15.5078 17.543 15.2891 17.7539C15.0781 17.9648 14.9727 18.2227 14.9727 18.5273C14.9727 18.832 15.0781 19.0898 15.2891 19.3008C15.5078 19.5039 15.7656 19.6055 16.0625 19.6055Z" fill="black"/>
</svg>
