<svg width="25" height="25" viewBox="0 0 25 25" fill="none" xmlns="http://www.w3.org/2000/svg">
<path d="M12.5 24.5039C10.8516 24.5039 9.30469 24.1914 7.85938 23.5664C6.41406 22.9492 5.14453 22.0938 4.05078 21C2.95703 19.8984 2.09766 18.6289 1.47266 17.1914C0.855469 15.7461 0.546875 14.1992 0.546875 12.5508C0.546875 10.9023 0.855469 9.35547 1.47266 7.91016C2.09766 6.46484 2.95703 5.19531 4.05078 4.10156C5.14453 3.00781 6.41406 2.15234 7.85938 1.53516C9.30469 0.910156 10.8516 0.597656 12.5 0.597656C14.1484 0.597656 15.6953 0.910156 17.1406 1.53516C18.5859 2.15234 19.8555 3.00781 20.9492 4.10156C22.043 5.19531 22.8984 6.46484 23.5156 7.91016C24.1406 9.35547 24.4531 10.9023 24.4531 12.5508C24.4531 14.1992 24.1406 15.7461 23.5156 17.1914C22.8984 18.6289 22.043 19.8984 20.9492 21C19.8555 22.0938 18.5859 22.9492 17.1406 23.5664C15.6953 24.1914 14.1484 24.5039 12.5 24.5039ZM16.4609 5.90625H8.44531C8.00781 5.90625 7.65625 6.04688 7.39062 6.32812C7.125 6.60156 6.99219 6.96484 6.99219 7.41797V9.08203H17.9141V7.41797C17.9141 6.96484 17.7812 6.60156 17.5156 6.32812C17.25 6.04688 16.8984 5.90625 16.4609 5.90625ZM9.26562 8.36719C9.10938 8.36719 8.97266 8.3125 8.85547 8.20312C8.74609 8.08594 8.69141 7.94922 8.69141 7.79297C8.69141 7.62891 8.74609 7.49219 8.85547 7.38281C8.97266 7.26562 9.10938 7.20703 9.26562 7.20703C9.42188 7.20703 9.55469 7.26562 9.66406 7.38281C9.77344 7.49219 9.82812 7.62891 9.82812 7.79297C9.82812 7.94922 9.77344 8.08594 9.66406 8.20312C9.55469 8.3125 9.42188 8.36719 9.26562 8.36719ZM10.9297 8.36719C10.7656 8.36719 10.6289 8.3125 10.5195 8.20312C10.418 8.08594 10.3672 7.94922 10.3672 7.79297C10.3672 7.62891 10.418 7.49219 10.5195 7.38281C10.6289 7.26562 10.7656 7.20703 10.9297 7.20703C11.0859 7.20703 11.2188 7.26562 11.3281 7.38281C11.4453 7.49219 11.5039 7.62891 11.5039 7.79297C11.5039 7.94922 11.4453 8.08594 11.3281 8.20312C11.2188 8.3125 11.0859 8.36719 10.9297 8.36719ZM14.4453 8.14453C14.2109 8.14453 14.0938 8.02734 14.0938 7.79297C14.0938 7.68359 14.125 7.59766 14.1875 7.53516C14.2578 7.47266 14.3438 7.44141 14.4453 7.44141H16.0039C16.1133 7.44141 16.1992 7.47266 16.2617 7.53516C16.3242 7.59766 16.3555 7.68359 16.3555 7.79297C16.3555 7.89453 16.3242 7.98047 16.2617 8.05078C16.1992 8.11328 16.1133 8.14453 16.0039 8.14453H14.4453ZM8.44531 19.1367H16.4609C16.8984 19.1367 17.25 19 17.5156 18.7266C17.7812 18.4531 17.9141 18.0898 17.9141 17.6367V9.98438H6.99219V17.6367C6.99219 18.0898 7.125 18.4531 7.39062 18.7266C7.65625 19 8.00781 19.1367 8.44531 19.1367ZM12.4531 17.7188C11.8281 17.7188 11.2578 17.5664 10.7422 17.2617C10.2266 16.9492 9.8125 16.5352 9.5 16.0195C9.19531 15.5039 9.04297 14.9336 9.04297 14.3086C9.04297 13.6836 9.19531 13.1133 9.5 12.5977C9.8125 12.082 10.2266 11.6719 10.7422 11.3672C11.2578 11.0547 11.8281 10.8984 12.4531 10.8984C13.0781 10.8984 13.6484 11.0547 14.1641 11.3672C14.6875 11.6719 15.1016 12.082 15.4062 12.5977C15.7109 13.1133 15.8633 13.6836 15.8633 14.3086C15.8633 14.9336 15.7109 15.5039 15.4062 16.0195C15.1016 16.5352 14.6875 16.9492 14.1641 17.2617C13.6484 17.5664 13.0781 17.7188 12.4531 17.7188ZM12.4531 16.8516C13.1641 16.8516 13.7656 16.6055 14.2578 16.1133C14.75 15.6211 14.9961 15.0195 14.9961 14.3086C14.9961 13.5977 14.75 12.9961 14.2578 12.5039C13.7656 12.0039 13.1641 11.7539 12.4531 11.7539C11.7422 11.7539 11.1406 12.0039 10.6484 12.5039C10.1562 12.9961 9.91016 13.5977 9.91016 14.3086C9.91016 15.0195 10.1562 15.6211 10.6484 16.1133C11.1406 16.6055 11.7422 16.8516 12.4531 16.8516Z" fill="black"/>
</svg>
