<svg width="25" height="25" viewBox="0 0 25 25" fill="none" xmlns="http://www.w3.org/2000/svg">
<path d="M12.5 24.5039C10.8516 24.5039 9.30469 24.1914 7.85938 23.5664C6.41406 22.9492 5.14453 22.0938 4.05078 21C2.95703 19.8984 2.09766 18.6289 1.47266 17.1914C0.855469 15.7461 0.546875 14.1992 0.546875 12.5508C0.546875 10.9023 0.855469 9.35547 1.47266 7.91016C2.09766 6.46484 2.95703 5.19531 4.05078 4.10156C5.14453 3.00781 6.41406 2.15234 7.85938 1.53516C9.30469 0.910156 10.8516 0.597656 12.5 0.597656C14.1484 0.597656 15.6953 0.910156 17.1406 1.53516C18.5859 2.15234 19.8555 3.00781 20.9492 4.10156C22.043 5.19531 22.8984 6.46484 23.5156 7.91016C24.1406 9.35547 24.4531 10.9023 24.4531 12.5508C24.4531 14.1992 24.1406 15.7461 23.5156 17.1914C22.8984 18.6289 22.043 19.8984 20.9492 21C19.8555 22.0938 18.5859 22.9492 17.1406 23.5664C15.6953 24.1914 14.1484 24.5039 12.5 24.5039ZM7.53125 17.9414H17.4805C18.1211 17.9414 18.5977 17.7891 18.9102 17.4844C19.2305 17.1719 19.3906 16.6953 19.3906 16.0547V10.043C19.3906 9.41016 19.2305 8.9375 18.9102 8.625C18.5977 8.3125 18.1211 8.15625 17.4805 8.15625H16.1914V7.53516C16.1914 7.05859 16.0469 6.68359 15.7578 6.41016C15.4688 6.13672 15.0742 6 14.5742 6H10.4375C9.9375 6 9.54297 6.13672 9.25391 6.41016C8.96484 6.68359 8.82031 7.05859 8.82031 7.53516V8.15625H7.53125C6.89062 8.15625 6.41016 8.3125 6.08984 8.625C5.77734 8.9375 5.62109 9.41016 5.62109 10.043V16.0547C5.62109 16.6953 5.77734 17.1719 6.08984 17.4844C6.41016 17.7891 6.89062 17.9414 7.53125 17.9414ZM9.99219 8.15625V7.59375C9.99219 7.25781 10.168 7.08984 10.5195 7.08984H14.5039C14.8555 7.08984 15.0312 7.25781 15.0312 7.59375V8.15625H9.99219ZM9.65234 13.582V12.4805C9.65234 12.3242 9.69922 12.1992 9.79297 12.1055C9.89453 12.0039 10.0234 11.9531 10.1797 11.9531H11.4219V10.7109C11.4219 10.5547 11.4727 10.4297 11.5742 10.3359C11.6758 10.2344 11.8047 10.1836 11.9609 10.1836H13.0508C13.207 10.1836 13.3359 10.2344 13.4375 10.3359C13.5391 10.4297 13.5898 10.5547 13.5898 10.7109V11.9531H14.832C14.9883 11.9531 15.1133 12.0039 15.207 12.1055C15.3086 12.1992 15.3594 12.3242 15.3594 12.4805V13.582C15.3594 13.7461 15.3086 13.8789 15.207 13.9805C15.1133 14.0742 14.9883 14.1211 14.832 14.1211H13.5898V15.3633C13.5898 15.5273 13.5391 15.6602 13.4375 15.7617C13.3359 15.8555 13.207 15.9023 13.0508 15.9023H11.9609C11.8047 15.9023 11.6758 15.8555 11.5742 15.7617C11.4727 15.6602 11.4219 15.5273 11.4219 15.3633V14.1211H10.1797C10.0234 14.1211 9.89453 14.0742 9.79297 13.9805C9.69922 13.8789 9.65234 13.7461 9.65234 13.582Z" fill="black"/>
</svg>
