<svg width="25" height="25" viewBox="0 0 25 25" fill="none" xmlns="http://www.w3.org/2000/svg">
<path d="M12.5 24.4922C10.8516 24.4922 9.30469 24.1797 7.85938 23.5547C6.41406 22.9375 5.14453 22.082 4.05078 20.9883C2.95703 19.8867 2.09766 18.6172 1.47266 17.1797C0.855469 15.7344 0.546875 14.1875 0.546875 12.5391C0.546875 10.8906 0.855469 9.34375 1.47266 7.89844C2.09766 6.45312 2.95703 5.18359 4.05078 4.08984C5.14453 2.99609 6.41406 2.14063 7.85938 1.52344C9.30469 0.898438 10.8516 0.585938 12.5 0.585938C14.1484 0.585938 15.6953 0.898438 17.1406 1.52344C18.5859 2.14063 19.8555 2.99609 20.9492 4.08984C22.043 5.18359 22.8984 6.45312 23.5156 7.89844C24.1406 9.34375 24.4531 10.8906 24.4531 12.5391C24.4531 14.1875 24.1406 15.7344 23.5156 17.1797C22.8984 18.6172 22.043 19.8867 20.9492 20.9883C19.8555 22.082 18.5859 22.9375 17.1406 23.5547C15.6953 24.1797 14.1484 24.4922 12.5 24.4922ZM5.55078 14.2617C5.55078 14.9023 5.75 15.4258 6.14844 15.832C6.54688 16.2305 7.05469 16.4297 7.67188 16.4297C7.875 16.4297 8.08203 16.4062 8.29297 16.3594C8.51172 16.3047 8.73438 16.2188 8.96094 16.1016C9.13281 16.25 9.40625 16.4102 9.78125 16.582C10.1641 16.7539 10.5898 16.8477 11.0586 16.8633C10.9727 16.4414 10.8086 15.9727 10.5664 15.457C10.3242 14.9336 10.1133 14.5117 9.93359 14.1914C10.1836 14.1602 10.3828 14.1133 10.5312 14.0508C10.7422 14.4414 10.9375 14.8398 11.1172 15.2461C11.3047 15.6445 11.457 16.0273 11.5742 16.3945C11.6914 16.7617 11.75 17.0859 11.75 17.3672C11.75 17.75 11.7344 18.1484 11.7031 18.5625C11.6719 18.9688 11.6562 19.2539 11.6562 19.418C11.6562 19.543 11.7305 19.6445 11.8789 19.7227C12.0352 19.8008 12.2383 19.8398 12.4883 19.8398C12.7383 19.8398 12.9414 19.8008 13.0977 19.7227C13.2539 19.6445 13.332 19.543 13.332 19.418C13.332 19.2539 13.3164 18.9688 13.2852 18.5625C13.2539 18.1484 13.2383 17.75 13.2383 17.3672C13.2383 17.1016 13.2891 16.7969 13.3906 16.4531C13.5 16.1094 13.6445 15.7344 13.8242 15.3281C14.0039 14.9219 14.207 14.4961 14.4336 14.0508C14.5898 14.1211 14.7969 14.168 15.0547 14.1914C14.875 14.5117 14.6641 14.9336 14.4219 15.457C14.1797 15.9727 14.0156 16.4414 13.9297 16.8633C14.3984 16.8477 14.8203 16.7539 15.1953 16.582C15.5781 16.4102 15.8555 16.25 16.0273 16.1016C16.2539 16.2188 16.4727 16.3047 16.6836 16.3594C16.9023 16.4062 17.1133 16.4297 17.3164 16.4297C17.9336 16.4297 18.4414 16.2305 18.8398 15.832C19.2383 15.4258 19.4375 14.9023 19.4375 14.2617C19.4375 13.9336 19.3633 13.6016 19.2148 13.2656C19.0742 12.9219 18.8555 12.5977 18.5586 12.293C18.793 12.0352 18.9609 11.7617 19.0625 11.4727C19.1719 11.1836 19.2266 10.8867 19.2266 10.582C19.2266 9.94141 19.0117 9.36328 18.582 8.84766C18.1523 8.33203 17.6289 8.03906 17.0117 7.96875C16.9961 7.55469 16.8516 7.1875 16.5781 6.86719C16.3047 6.54688 15.9609 6.29688 15.5469 6.11719C15.1328 5.92969 14.7031 5.83594 14.2578 5.83594C13.9219 5.83594 13.6016 5.89453 13.2969 6.01172C12.9922 6.12109 12.7227 6.29688 12.4883 6.53906C12.2617 6.29688 11.9961 6.12109 11.6914 6.01172C11.3867 5.89453 11.0664 5.83594 10.7305 5.83594C10.2852 5.83594 9.85547 5.92969 9.44141 6.11719C9.02734 6.29688 8.68359 6.54688 8.41016 6.86719C8.13672 7.1875 7.98828 7.55469 7.96484 7.96875C7.35547 8.03906 6.83594 8.33203 6.40625 8.84766C5.97656 9.36328 5.76172 9.94141 5.76172 10.582C5.76172 10.8867 5.8125 11.1836 5.91406 11.4727C6.02344 11.7617 6.19531 12.0352 6.42969 12.293C6.13281 12.5977 5.91016 12.9219 5.76172 13.2656C5.62109 13.6016 5.55078 13.9336 5.55078 14.2617ZM12.0547 15.1875C11.9453 14.9297 11.8203 14.668 11.6797 14.4023C11.5469 14.1289 11.3906 13.832 11.2109 13.5117C11.25 13.4414 11.2891 13.3672 11.3281 13.2891C11.3672 13.2109 11.3984 13.1328 11.4219 13.0547C11.625 13.1953 11.832 13.293 12.043 13.3477L12.0547 15.1875ZM12.9336 15.1758L12.9102 13.3594C13.1367 13.3047 13.3555 13.2031 13.5664 13.0547C13.5898 13.1328 13.6172 13.2109 13.6484 13.2891C13.6875 13.3594 13.7266 13.4297 13.7656 13.5C13.5859 13.8438 13.4297 14.1484 13.2969 14.4141C13.1641 14.6719 13.043 14.9258 12.9336 15.1758Z" fill="black"/>
</svg>
