<svg width="25" height="25" viewBox="0 0 25 25" fill="none" xmlns="http://www.w3.org/2000/svg">
<path d="M12.5 24.5039C10.8516 24.5039 9.30469 24.1914 7.85938 23.5664C6.41406 22.9492 5.14453 22.0938 4.05078 21C2.95703 19.8984 2.09766 18.6289 1.47266 17.1914C0.855469 15.7461 0.546875 14.1992 0.546875 12.5508C0.546875 10.9023 0.855469 9.35547 1.47266 7.91016C2.09766 6.46484 2.95703 5.19531 4.05078 4.10156C5.14453 3.00781 6.41406 2.15234 7.85938 1.53516C9.30469 0.910156 10.8516 0.597656 12.5 0.597656C14.1484 0.597656 15.6953 0.910156 17.1406 1.53516C18.5859 2.15234 19.8555 3.00781 20.9492 4.10156C22.043 5.19531 22.8984 6.46484 23.5156 7.91016C24.1406 9.35547 24.4531 10.9023 24.4531 12.5508C24.4531 14.1992 24.1406 15.7461 23.5156 17.1914C22.8984 18.6289 22.043 19.8984 20.9492 21C19.8555 22.0938 18.5859 22.9492 17.1406 23.5664C15.6953 24.1914 14.1484 24.5039 12.5 24.5039ZM17.6914 7.35938C16.9961 6.67188 16.2227 6.33203 15.3711 6.33984C14.5273 6.33984 13.75 6.69922 13.0391 7.41797L10.5547 9.90234L15.125 14.4844L17.6211 12C18.3477 11.2812 18.7148 10.4961 18.7227 9.64453C18.7383 8.79297 18.3945 8.03125 17.6914 7.35938ZM7.28516 17.7656C7.98047 18.4453 8.75391 18.7773 9.60547 18.7617C10.457 18.7461 11.2383 18.3789 11.9492 17.6602L14.4336 15.1758L9.86328 10.6055L7.37891 13.1016C6.66016 13.8281 6.29297 14.6172 6.27734 15.4688C6.26172 16.3203 6.59766 17.0859 7.28516 17.7656Z" fill="black"/>
</svg>
