<svg width="25" height="25" viewBox="0 0 25 25" fill="none" xmlns="http://www.w3.org/2000/svg">
<g clip-path="url(#clip0_110_19)">
<path d="M12.5 0C5.6 0 0 5.6 0 12.5C0 19.4 5.6 25 12.5 25C19.4 25 25 19.4 25 12.5C25 5.6 19.4 0 12.5 0ZM19.5 17.5C19.5 18.6 18.6 19.5 17.5 19.5H7.5C6.4 19.5 5.5 18.6 5.5 17.5V7.5C5.5 6.4 6.4 5.5 7.5 5.5H17.5C18.6 5.5 19.5 6.4 19.5 7.5V17.5Z" fill="black"/>
<path d="M8.5 7.06C7.71 7.06 7.06 7.71 7.06 8.5C7.06 9.29 7.71 9.94 8.5 9.94C9.29 9.94 9.94 9.3 9.94 8.5C9.94 7.7 9.29 7.06 8.5 7.06ZM8.5 9.06C8.19 9.06 7.94 8.81 7.94 8.5C7.94 8.19 8.19 7.94 8.5 7.94C8.81 7.94 9.06 8.19 9.06 8.5C9.06 8.81 8.81 9.06 8.5 9.06Z" fill="black"/>
<path d="M12.5 7.06C11.71 7.06 11.06 7.71 11.06 8.5C11.06 9.29 11.71 9.94 12.5 9.94C13.29 9.94 13.94 9.3 13.94 8.5C13.94 7.7 13.29 7.06 12.5 7.06ZM12.5 9.06C12.19 9.06 11.94 8.81 11.94 8.5C11.94 8.19 12.19 7.94 12.5 7.94C12.81 7.94 13.06 8.19 13.06 8.5C13.06 8.81 12.81 9.06 12.5 9.06Z" fill="black"/>
<path d="M16.5 9.94C17.29 9.94 17.94 9.3 17.94 8.5C17.94 7.7 17.29 7.06 16.5 7.06C15.71 7.06 15.06 7.71 15.06 8.5C15.06 9.29 15.71 9.94 16.5 9.94ZM16.5 7.94C16.81 7.94 17.06 8.19 17.06 8.5C17.06 8.81 16.81 9.06 16.5 9.06C16.19 9.06 15.94 8.81 15.94 8.5C15.94 8.19 16.19 7.94 16.5 7.94Z" fill="black"/>
<path d="M8.5 11.06C7.71 11.06 7.06 11.71 7.06 12.5C7.06 13.29 7.71 13.94 8.5 13.94C9.29 13.94 9.94 13.3 9.94 12.5C9.94 11.7 9.29 11.06 8.5 11.06ZM8.5 13.06C8.19 13.06 7.94 12.81 7.94 12.5C7.94 12.19 8.19 11.94 8.5 11.94C8.81 11.94 9.06 12.19 9.06 12.5C9.06 12.81 8.81 13.06 8.5 13.06Z" fill="black"/>
<path d="M12.5 11.06C11.71 11.06 11.06 11.71 11.06 12.5C11.06 13.29 11.71 13.94 12.5 13.94C13.29 13.94 13.94 13.3 13.94 12.5C13.94 11.7 13.29 11.06 12.5 11.06ZM12.5 13.06C12.19 13.06 11.94 12.81 11.94 12.5C11.94 12.19 12.19 11.94 12.5 11.94C12.81 11.94 13.06 12.19 13.06 12.5C13.06 12.81 12.81 13.06 12.5 13.06Z" fill="black"/>
<path d="M16.5 11.06C15.71 11.06 15.06 11.71 15.06 12.5C15.06 13.29 15.71 13.94 16.5 13.94C17.29 13.94 17.94 13.3 17.94 12.5C17.94 11.7 17.29 11.06 16.5 11.06ZM16.5 13.06C16.19 13.06 15.94 12.81 15.94 12.5C15.94 12.19 16.19 11.94 16.5 11.94C16.81 11.94 17.06 12.19 17.06 12.5C17.06 12.81 16.81 13.06 16.5 13.06Z" fill="black"/>
<path d="M8.5 15.06C7.71 15.06 7.06 15.7 7.06 16.5C7.06 17.3 7.71 17.94 8.5 17.94C9.29 17.94 9.94 17.29 9.94 16.5C9.94 15.71 9.29 15.06 8.5 15.06ZM8.5 17.06C8.19 17.06 7.94 16.81 7.94 16.5C7.94 16.19 8.19 15.94 8.5 15.94C8.81 15.94 9.06 16.19 9.06 16.5C9.06 16.81 8.81 17.06 8.5 17.06Z" fill="black"/>
<path d="M12.5 15.06C11.71 15.06 11.06 15.7 11.06 16.5C11.06 17.3 11.71 17.94 12.5 17.94C13.29 17.94 13.94 17.29 13.94 16.5C13.94 15.71 13.29 15.06 12.5 15.06ZM12.5 17.06C12.19 17.06 11.94 16.81 11.94 16.5C11.94 16.19 12.19 15.94 12.5 15.94C12.81 15.94 13.06 16.19 13.06 16.5C13.06 16.81 12.81 17.06 12.5 17.06Z" fill="black"/>
<path d="M16.5 15.06C15.71 15.06 15.06 15.7 15.06 16.5C15.06 17.3 15.71 17.94 16.5 17.94C17.29 17.94 17.94 17.29 17.94 16.5C17.94 15.71 17.29 15.06 16.5 15.06ZM16.5 17.06C16.19 17.06 15.94 16.81 15.94 16.5C15.94 16.19 16.19 15.94 16.5 15.94C16.81 15.94 17.06 16.19 17.06 16.5C17.06 16.81 16.81 17.06 16.5 17.06Z" fill="black"/>
</g>
<defs>
<clipPath id="clip0_110_19">
<rect width="25" height="25" fill="white"/>
</clipPath>
</defs>
</svg>
