<svg width="25" height="25" viewBox="0 0 25 25" fill="none" xmlns="http://www.w3.org/2000/svg">
<path d="M12.5 24.4922C10.8516 24.4922 9.30469 24.1797 7.85938 23.5547C6.41406 22.9375 5.14453 22.082 4.05078 20.9883C2.95703 19.8867 2.09766 18.6172 1.47266 17.1797C0.855469 15.7344 0.546875 14.1875 0.546875 12.5391C0.546875 10.8906 0.855469 9.34375 1.47266 7.89844C2.09766 6.45312 2.95703 5.18359 4.05078 4.08984C5.14453 2.99609 6.41406 2.14063 7.85938 1.52344C9.30469 0.898438 10.8516 0.585938 12.5 0.585938C14.1484 0.585938 15.6953 0.898438 17.1406 1.52344C18.5859 2.14063 19.8555 2.99609 20.9492 4.08984C22.043 5.18359 22.8984 6.45312 23.5156 7.89844C24.1406 9.34375 24.4531 10.8906 24.4531 12.5391C24.4531 14.1875 24.1406 15.7344 23.5156 17.1797C22.8984 18.6172 22.043 19.8867 20.9492 20.9883C19.8555 22.082 18.5859 22.9375 17.1406 23.5547C15.6953 24.1797 14.1484 24.4922 12.5 24.4922ZM6.82812 17.4258H11.0234C11.2422 17.4258 11.4102 17.3633 11.5273 17.2383C11.6523 17.1055 11.7148 16.9336 11.7148 16.7227C11.7148 16.4883 11.6523 16.3125 11.5273 16.1953C11.4023 16.0703 11.2344 16.0078 11.0234 16.0078H8.16406V15.9023L9.92188 13.6758C10.5234 12.9258 10.9414 12.2969 11.1758 11.7891C11.4102 11.2812 11.5273 10.7578 11.5273 10.2188C11.5273 9.40625 11.2734 8.73438 10.7656 8.20312C10.2578 7.67188 9.58594 7.40625 8.75 7.40625C8.23438 7.40625 7.76953 7.53125 7.35547 7.78125C6.94922 8.02344 6.625 8.33984 6.38281 8.73047C6.14062 9.12109 6.01953 9.52344 6.01953 9.9375C6.01953 10.1641 6.08203 10.3516 6.20703 10.5C6.33984 10.6406 6.51953 10.7109 6.74609 10.7109C6.94922 10.7109 7.11328 10.6641 7.23828 10.5703C7.36328 10.4766 7.46094 10.3281 7.53125 10.125C7.64062 9.72656 7.78125 9.41016 7.95312 9.17578C8.13281 8.93359 8.39453 8.8125 8.73828 8.8125C8.98047 8.8125 9.18359 8.87891 9.34766 9.01172C9.51953 9.13672 9.64844 9.3125 9.73438 9.53906C9.82031 9.76562 9.86328 10.0195 9.86328 10.3008C9.86328 10.7852 9.72266 11.2656 9.44141 11.7422C9.16797 12.2188 8.875 12.6641 8.5625 13.0781L6.46484 15.75C6.34766 15.8984 6.24219 16.0508 6.14844 16.207C6.05469 16.3633 6.00781 16.5352 6.00781 16.7227C6.00781 16.9258 6.07422 17.0938 6.20703 17.2266C6.34766 17.3594 6.55469 17.4258 6.82812 17.4258ZM17.2812 17.5781C17.5156 17.5781 17.7148 17.5078 17.8789 17.3672C18.043 17.2266 18.125 17.0117 18.125 16.7227V15.5156H18.5469C18.7812 15.5156 18.9531 15.4492 19.0625 15.3164C19.1797 15.1758 19.2383 15.0039 19.2383 14.8008C19.2383 14.6055 19.1836 14.4414 19.0742 14.3086C18.9648 14.1758 18.7891 14.1094 18.5469 14.1094H18.125V8.8125C18.125 8.39062 17.9961 8.06641 17.7383 7.83984C17.4883 7.61328 17.168 7.5 16.7773 7.5C16.4883 7.5 16.2461 7.54688 16.0508 7.64062C15.8555 7.73438 15.6875 7.87109 15.5469 8.05078C15.4141 8.23047 15.293 8.44531 15.1836 8.69531L13.0273 13.3711C12.9258 13.6055 12.8516 13.8125 12.8047 13.9922C12.7656 14.1641 12.7461 14.3438 12.7461 14.5312C12.7461 14.8203 12.8398 15.0586 13.0273 15.2461C13.2148 15.4258 13.4531 15.5156 13.7422 15.5156H16.4492V16.7227C16.4492 17.043 16.5391 17.2656 16.7188 17.3906C16.9062 17.5156 17.0938 17.5781 17.2812 17.5781ZM16.4844 14.1445H14.2461V14.0625L16.4375 9.02344H16.4844V14.1445Z" fill="black"/>
</svg>
