<svg width="28" height="28" viewBox="0 0 28 28" fill="none" xmlns="http://www.w3.org/2000/svg">
<g clip-path="url(#clip0_2622_5687)">
<path d="M27.7593 5.58941C27.7274 4.74221 27.2803 3.97901 26.5388 3.49334C25.6838 2.93463 24.5626 2.84334 23.6118 3.25598C23.5905 3.26328 23.5692 3.27424 23.5479 3.28519L13.997 8.09446L4.44961 3.28519C4.42832 3.27424 4.40703 3.26328 4.38575 3.25598C3.43846 2.84334 2.31732 2.93463 1.46228 3.49334C0.720769 3.97901 0.277282 4.74221 0.241803 5.58941C0.160202 7.70008 0.0502168 10.7456 0.000546221 13.2616C-0.0171933 14.1307 0.397911 14.9268 1.13587 15.449C1.65387 15.8141 2.27475 16.0004 2.90273 16.0004C3.31428 16.0004 3.72939 15.92 4.11965 15.7557C4.14094 15.7484 4.15868 15.7374 4.17997 15.7265L14.0005 10.9209L23.8211 15.7265C23.8424 15.7374 23.8602 15.7447 23.8814 15.7557C24.2717 15.92 24.6868 16.0004 25.0984 16.0004C25.7263 16.0004 26.3472 15.8141 26.8652 15.449C27.6067 14.9268 28.0183 14.1307 28.0005 13.2616C27.9509 10.7383 27.8409 7.69643 27.7593 5.58941Z" fill="black"/>
</g>
<defs>
<clipPath id="clip0_2622_5687">
<rect width="28" height="16.0004" fill="white"/>
</clipPath>
</defs>
</svg>
