<svg width="28" height="28" viewBox="0 0 28 28" fill="none" xmlns="http://www.w3.org/2000/svg">
<g clip-path="url(#clip0_2622_3365)">
<path d="M22.9192 4.09406C21.6124 3.02286 20.0546 2.28585 18.3982 1.82169C17.925 1.68931 17.4464 1.57871 16.9647 1.48911C14.5794 1.04432 12.0964 1.07742 9.75497 1.72482C7.12572 2.45134 4.54105 3.95844 3.02231 6.32929C1.62714 8.50641 0.777832 11.2534 0.777832 13.8729C0.777832 16.8007 1.88991 21.1534 4.48474 23.4483C7.41899 26.0436 11.0837 26.0379 13.9749 26.0379C16.8661 26.0379 20.5308 26.0436 23.4651 23.4483C26.0599 21.1534 27.172 16.8007 27.172 13.8729C27.172 11.3446 26.3759 8.70741 25.0792 6.57308C24.488 5.59955 23.7552 4.77859 22.9192 4.09406Z" fill="#FFFDC7" stroke="black" stroke-miterlimit="10"/>
<path d="M18.3042 7.97852C16.1661 7.97852 14.4331 9.76735 14.4331 11.9743C14.4331 14.1813 16.1661 15.9701 18.3042 15.9701C20.4424 15.9701 22.1754 14.1813 22.1754 11.9743C22.1754 9.76735 20.4424 7.97852 18.3042 7.97852ZM18.3042 15.4713C16.4328 15.4713 14.9164 13.9052 14.9164 11.9743C14.9164 10.0434 16.4336 8.47739 18.3042 8.47739C20.1749 8.47739 21.6921 10.0434 21.6921 11.9743C21.6921 13.9052 20.1749 15.4713 18.3042 15.4713Z" fill="black"/>
<path d="M22.1753 12.0146H21.7061V18.5533H22.1753V12.0146Z" fill="black"/>
<path d="M22.658 20.6522H21.2245C21.0869 20.6522 20.9829 20.5472 21.0056 20.4326L21.4146 18.3814C21.4318 18.2942 21.5209 18.2305 21.6257 18.2305H22.2568C22.3616 18.2305 22.4508 18.2942 22.468 18.3814L22.877 20.4326C22.8997 20.5472 22.7957 20.6522 22.658 20.6522Z" fill="black"/>
<path d="M9.04806 13.4799C9.40051 13.4799 9.68622 13.1853 9.68622 12.822C9.68622 12.4586 9.40051 12.1641 9.04806 12.1641C8.69562 12.1641 8.40991 12.4586 8.40991 12.822C8.40991 13.1853 8.69562 13.4799 9.04806 13.4799Z" fill="black"/>
<path d="M18.1196 13.4799C18.472 13.4799 18.7577 13.1853 18.7577 12.822C18.7577 12.4586 18.472 12.1641 18.1196 12.1641C17.7672 12.1641 17.4814 12.4586 17.4814 12.822C17.4814 13.1853 17.7672 13.4799 18.1196 13.4799Z" fill="black"/>
<path d="M13.5839 16.2527C13.9511 16.2527 14.2487 15.9455 14.2487 15.5665C14.2487 15.1876 13.9511 14.8804 13.5839 14.8804C13.2168 14.8804 12.9192 15.1876 12.9192 15.5665C12.9192 15.9455 13.2168 16.2527 13.5839 16.2527Z" fill="black"/>
<path d="M12.7737 18.646C13.5354 18.6154 13.9905 18.6363 15.1253 18.4006C15.1253 18.4006 15.5648 21.1291 14.3214 21.3987C13.2891 21.6231 12.8738 20.6972 12.7737 18.6452V18.646Z" fill="black" stroke="black" stroke-linecap="round" stroke-linejoin="round"/>
<path d="M9.74632 9.2207C8.98851 9.3426 8.23071 9.4653 7.4729 9.58719" stroke="black" stroke-linecap="round" stroke-linejoin="round"/>
<path d="M17.0139 9.05933C17.7717 9.18122 18.5295 9.30392 19.2873 9.42581" stroke="black" stroke-linecap="round" stroke-linejoin="round"/>
</g>
<defs>
<clipPath id="clip0_2622_3365">
<rect width="28" height="27" fill="white"/>
</clipPath>
</defs>
</svg>
